<?xml version="1.0" encoding="UTF-8" standalone="no"?>
<!-- Created with Inkscape (http://www.inkscape.org/) -->

<svg
   xmlns:dc="http://purl.org/dc/elements/1.1/"
   xmlns:cc="http://creativecommons.org/ns#"
   xmlns:rdf="http://www.w3.org/1999/02/22-rdf-syntax-ns#"
   xmlns:svg="http://www.w3.org/2000/svg"
   xmlns="http://www.w3.org/2000/svg"
   version="1.1"
   width="60"
   height="60.000019"
   id="svg3151">
  <metadata
     id="metadata3157">
    <rdf:RDF>
      <cc:Work
         rdf:about="">
        <dc:format>image/svg+xml</dc:format>
        <dc:type
           rdf:resource="http://purl.org/dc/dcmitype/StillImage" />
        <dc:title></dc:title>
      </cc:Work>
    </rdf:RDF>
  </metadata>
  <defs
     id="defs3155" />
  <path
     d="m 26.154948,59.351791 c -1.124059,-0.72008 -1.352362,-0.7515 -2.882202,-0.39668 l -1.071871,0.24861 -1.086779,-0.96403 -1.086778,-0.96403 -1.382838,0.0874 -1.382836,0.0874 -0.871047,-1.14585 -0.871048,-1.14584 -1.408934,-0.19943 -1.408934,-0.19943 -0.684765,-1.2679 -0.684764,-1.26791 -1.3381925,-0.41726 -1.3381955,-0.41726 -0.444558,-1.36519 -0.444556,-1.36519 -1.2883703,-0.67034 c -1.098986,-0.5718 -1.288368,-0.73128 -1.288368,-1.08495 0,-0.22804 -0.0781,-0.86311 -0.173548,-1.41127 -0.170825,-0.98103 -0.191409,-1.01029 -1.312299,-1.86518 l -1.1387527,-0.86852 0.1057461,-1.39152 c 0.1173582,-1.54429 0.2259376,-1.3016 -1.3124602,-2.93358 l -0.53641353,-0.56904 0.23506183,-1.0077 C 1.4355935,35.235141 1.4111191,35.041471 0.67738257,33.851121 0.3053027,33.247491 4.8079589e-4,32.700161 7.9589182e-7,32.634841 -4.8570411e-4,32.569541 0.2221257,31.961691 0.494675,31.284121 l 0.49554657,-1.23195 -0.49467417,-1.24537 c -0.272071,-0.68496 -0.49467420411,-1.30953 -0.49467420411,-1.38795 0,-0.0784 0.31887290411,-0.65982 0.70860687411,-1.292 l 0.70860853,-1.14943 -0.2864073,-1.40174 -0.28640733,-1.40175 0.97230083,-1.04524 0.9723025,-1.04523 -0.1009657,-1.40571 -0.1009657,-1.40571 1.1243508,-0.86387 c 1.107972,-0.85128 1.126925,-0.87865 1.300983,-1.87824 0.09715,-0.55791 0.176632,-1.16366 0.176632,-1.34612 0,-0.4056 0.13202,-0.51487 1.433249,-1.18629 1.0852103,-0.55995 1.1642133,-0.66618 1.7120003,-2.3018803 l 0.341135,-1.01863 1.2972605,-0.41905 1.2972585,-0.41904 0.740693,-1.28375 0.740693,-1.28374 0.845429,-0.10454 c 1.854564,-0.22931 1.874692,-0.23954 2.80047,-1.42356 l 0.872542,-1.1159399 1.406586,0.0884 1.406586,0.0884 0.959358,-0.91515 c 1.072159,-1.02274004 1.204863,-1.05359004 2.870772,-0.6672 l 1.068995,0.24793 1.13525,-0.73445004 C 26.742576,0.33138076 27.30589,4.8075937e-4 27.369999,7.5936724e-7 27.434109,-4.7924063e-4 28.052085,0.22666076 28.743281,0.50474076 l 1.25672,0.50562004 1.25672,-0.50562004 C 31.947917,0.22666076 32.565894,-4.7924063e-4 32.630003,7.5936724e-7 32.694113,4.9075937e-4 33.257426,0.33138076 33.881813,0.73532076 l 1.13525,0.73445004 1.068995,-0.24793 c 1.665908,-0.38639004 1.798613,-0.35554004 2.870772,0.6672 l 0.959358,0.91515 1.406586,-0.0884 1.406586,-0.0884 0.872541,1.1159399 c 0.925778,1.18402 0.945907,1.19425 2.800469,1.42356 l 0.845429,0.10454 0.740693,1.28374 0.740693,1.28375 1.29726,0.41904 1.297259,0.41905 0.341136,1.01863 c 0.547787,1.6357003 0.62679,1.7419303 1.711999,2.3018803 1.30123,0.67142 1.43325,0.78069 1.43325,1.18629 0,0.18246 0.07949,0.78821 0.176632,1.34612 0.174058,0.99959 0.193011,1.02696 1.300982,1.87824 l 1.124351,0.86387 -0.100965,1.40571 -0.100966,1.40571 0.972302,1.04523 0.972301,1.04524 -0.286407,1.40175 -0.286407,1.40174 0.708607,1.14943 c 0.389735,0.63218 0.708608,1.21358 0.708608,1.292 0,0.0784 -0.222603,0.70299 -0.494674,1.38795 l -0.494674,1.24537 0.495546,1.23195 c 0.27255,0.67757 0.495153,1.2854 0.494675,1.35072 -4.87e-4,0.0653 -0.305302,0.61265 -0.677382,1.21628 -0.733737,1.19035 -0.758211,1.38402 -0.379864,3.00598 l 0.235062,1.0077 -0.536414,0.56904 c -1.53806,1.63162 -1.429766,1.38996 -1.312784,2.9295 l 0.105423,1.38743 -1.137012,0.86447 c -1.12151,0.85268 -1.139399,0.87817 -1.311977,1.86927 -0.09623,0.55263 -0.174963,1.19136 -0.174963,1.4194 0,0.35367 -0.189382,0.51315 -1.288368,1.08495 l -1.28837,0.67034 -0.444558,1.36519 -0.444556,1.36519 -1.338195,0.41726 -1.338193,0.41726 -0.684765,1.26791 -0.684765,1.2679 -1.408932,0.19943 -1.408934,0.19943 -0.871815,1.14685 -0.871814,1.14686 -1.396881,-0.0905 c -1.543779,-0.10002 -1.351144,-0.18548 -2.921201,1.29588 l -0.580999,0.54817 -1.391009,-0.30997 -1.391011,-0.30997 -1.108984,0.70472 c -0.60994,0.3876 -1.226646,0.70663 -1.370455,0.70895 -0.143811,0.002 -0.783602,-0.21111 -1.421758,-0.47429 l -1.160285,-0.4785 -1.172761,0.47795 c -0.645019,0.26287 -1.282218,0.47666 -1.415998,0.47509 -0.13378,-0.002 -0.69652,-0.29322 -1.250534,-0.64812 z m 6.365844,-1.61406 c 9.683672,-0.87391 18.295043,-6.85644 22.532259,-15.65369 1.588987,-3.29904 2.419678,-6.42833 2.684204,-10.11165 C 58.544588,20.730911 52.490907,10.141771 42.390456,5.1276707 38.264815,3.0796108 34.758138,2.2711808 30.000001,2.2711808 c -4.758137,0 -8.264814,0.80843 -12.390455,2.8564899 C 8.776171,9.5127607 2.9743997,18.179501 2.2730816,28.037411 c -1.1384847,16.00288 11.3769124,29.58681 27.4836834,29.83018 0.624306,0.009 1.868118,-0.049 2.764027,-0.12986 z m -4.628838,-0.81509 c 0,-0.0892 0.218913,-0.16217 0.486473,-0.16217 0.267559,0 0.486472,0.073 0.486472,0.16217 0,0.0892 -0.218913,0.16217 -0.486472,0.16217 -0.26756,0 -0.486473,-0.073 -0.486473,-0.16217 z m 2.108047,0 c 0,-0.0892 0.255398,-0.16217 0.567551,-0.16217 0.312153,0 0.567551,0.073 0.567551,0.16217 0,0.0892 -0.255398,0.16217 -0.567551,0.16217 -0.312153,0 -0.567551,-0.073 -0.567551,-0.16217 z m 2.108047,0.0258 c 0,-0.18499 0.945877,-0.43124 1.092644,-0.28446 0.139918,0.13993 0.02649,0.20685 -0.565633,0.33371 -0.318506,0.0682 -0.527011,0.0488 -0.527011,-0.0492 z M 25.9477,56.777951 c -0.26289,-0.0732 -0.336211,-0.15414 -0.210155,-0.23205 0.236696,-0.1463 1.019307,0.032 1.019307,0.23218 0,0.16341 -0.221732,0.16338 -0.809152,-1.3e-4 z m 8.430552,-0.14446 c 0,-0.18139 0.799061,-0.42529 0.938027,-0.28631 0.129144,0.12915 0.01018,0.21047 -0.492427,0.33663 -0.26352,0.0661 -0.4456,0.0456 -0.4456,-0.0503 z m -10.296998,-0.1508 c -0.610196,-0.14679 -0.678622,-0.39681 -0.09357,-0.3419 0.305284,0.0287 0.585006,0.14333 0.621603,0.25482 0.06889,0.20988 0.01762,0.21834 -0.528037,0.0871 z m 12.405044,-0.33571 c 0,-0.1814 0.799062,-0.42529 0.938028,-0.28631 0.129144,0.12915 0.01018,0.21047 -0.492427,0.33663 -0.26352,0.0661 -0.445601,0.0456 -0.445601,-0.0503 z m -14.58521,-0.26167 c -0.320963,-0.11597 -0.481964,-0.24919 -0.378462,-0.31316 0.226545,-0.14003 1.018133,0.15035 1.018133,0.37348 0,0.0914 -0.01824,0.16063 -0.04054,0.15385 -0.0223,-0.007 -0.291906,-0.10316 -0.599131,-0.21417 z m 16.620286,-0.4107 c 0.237206,-0.23204 1.045916,-0.39452 1.045916,-0.21014 0,0.16075 -0.521117,0.35444 -0.964837,0.35862 -0.147218,10e-4 -0.177532,-0.0541 -0.08108,-0.14848 z m -18.696752,-0.34087 c -0.564122,-0.22677 -0.453354,-0.49544 0.121618,-0.29499 0.26756,0.0933 0.486472,0.23544 0.486472,0.31591 0,0.17659 -0.127684,0.17219 -0.60809,-0.0209 z m 10.175379,-0.38146 c 0,-0.39496 0.557251,-0.70341 0.739117,-0.40912 0.04995,0.0808 0.275012,0.14695 0.500147,0.14695 0.58378,0 0.396801,-0.36015 -0.277349,-0.53422 -0.755743,-0.19514 -0.961915,-0.3965 -0.961915,-0.93947 0,-0.57441 0.38159,-0.7967 1.367678,-0.7967 0.690199,0 0.740369,0.0287 0.740369,0.42384 0,0.40917 -0.02477,0.42013 -0.71533,0.31656 -0.442058,-0.0663 -0.755724,-0.0419 -0.821065,0.0638 -0.107066,0.17325 -0.0049,0.22914 0.725607,0.39708 0.557303,0.12812 0.748435,0.27956 0.878305,0.69591 0.183596,0.58859 -0.395074,1.02186 -1.364777,1.02186 -0.746154,0 -0.810787,-0.0308 -0.810787,-0.38651 z m 2.961801,-0.76714 c -0.0072,-0.76748 -0.07803,-1.06565 -0.289842,-1.22053 -0.37652,-0.27535 -0.187101,-0.70706 0.310228,-0.70706 0.266371,0 0.58958,0.22402 0.978035,0.67787 0.524998,0.6134 0.580186,0.64161 0.580186,0.29657 0,-0.20971 -0.124798,-0.51921 -0.277328,-0.68777 -0.239242,-0.26438 -0.244809,-0.32704 -0.04054,-0.45626 0.568023,-0.35931 1.373553,0.022 0.947208,0.44836 -0.100031,0.10003 -0.0969,0.41295 0.0087,0.87115 0.357943,1.55297 0.04223,1.80991 -0.942079,0.76671 -0.647182,-0.68591 -0.660889,-0.69151 -0.66486,-0.27173 -0.0022,0.23574 0.105402,0.47062 0.239182,0.52196 0.293596,0.11268 0.326209,0.58913 0.04054,0.59225 -0.111483,10e-4 -0.355061,0.0431 -0.541285,0.0931 -0.316302,0.0849 -0.339218,0.0241 -0.348153,-0.92466 z m 7.578432,0.82839 c 0,-0.0841 0.218913,-0.26613 0.486473,-0.40451 0.479039,-0.24774 0.679305,-0.10784 0.283775,0.19823 -0.327133,0.25315 -0.770248,0.37181 -0.770248,0.20628 z M 25.62175,54.559611 c 0,-0.14016 0.118375,-0.37322 0.263055,-0.51791 0.209209,-0.20923 0.242609,-0.4587 0.163171,-1.21878 l -0.09988,-0.9557 0.688155,0.11075 c 1.134724,0.18262 1.417863,0.45113 1.417863,1.3446 0,1.1868 -0.300321,1.49188 -1.468612,1.49188 -0.768031,0 -0.96375,-0.0517 -0.96375,-0.25484 z m 1.556068,-0.35578 c 0.235929,-0.15816 0.414633,-0.91989 0.291249,-1.24145 -0.175608,-0.45767 -0.662976,-0.29964 -0.773024,0.25064 -0.205547,1.02782 -0.05015,1.3474 0.481775,0.99081 z m -9.299086,0.0883 c -0.378906,-0.18275 -0.493083,-0.45075 -0.192036,-0.45075 0.27726,0 0.800127,0.32165 0.800127,0.49221 0,0.19389 -0.139918,0.18435 -0.608091,-0.0415 z m 6.324141,0.0905 c -0.246441,-0.0994 -0.268426,-0.49234 -0.03196,-0.57117 0.243658,-0.0812 0.4751,-1.2409 0.361261,-1.81015 -0.0891,-0.44554 -0.06718,-0.47366 0.293951,-0.37703 0.214628,0.0574 0.481447,0.10542 0.59293,0.10664 0.297775,0.003 0.246875,0.50175 -0.07529,0.73733 -0.205317,0.15015 -0.277983,0.44097 -0.277983,1.11253 0,0.81065 -0.0358,0.90786 -0.330107,0.89645 -0.181558,-0.007 -0.421319,-0.0496 -0.532802,-0.0946 z m 12.245486,-1.55485 c 0.11474,-2.06129 0.468808,-2.2707 1.449927,-0.85755 0.338239,0.48719 0.698388,0.88856 0.800328,0.89194 0.165363,0.005 0.456512,0.48828 0.345481,0.57289 -0.0244,0.0186 -0.275911,0.11186 -0.558921,0.20727 -0.420411,0.14173 -0.531774,0.12862 -0.608617,-0.0716 -0.05173,-0.13481 -0.05302,-0.3115 -0.0029,-0.39265 0.10638,-0.17214 -0.204341,-0.17551 -0.632855,-0.007 -0.271948,0.10702 -0.275678,0.13763 -0.04054,0.3328 0.375132,0.31135 0.322827,0.44556 -0.251712,0.64586 -0.280876,0.0979 -0.527112,0.17804 -0.547198,0.17804 -0.02009,0 9.72e-4,-0.67504 0.04698,-1.50008 z m 1.010884,-0.42611 c 0,-0.0783 -0.109456,-0.23316 -0.243236,-0.3442 -0.203216,-0.16867 -0.243236,-0.14525 -0.243236,0.14232 0,0.19784 0.103427,0.34419 0.243236,0.34419 0.13378,0 0.243236,-0.064 0.243236,-0.14231 z m 5.026881,1.43875 c 0,-0.0841 0.218912,-0.26613 0.486472,-0.4045 0.479039,-0.24774 0.679305,-0.10785 0.283776,0.19823 -0.327134,0.25314 -0.770248,0.37181 -0.770248,0.20627 z m -20.882228,-0.25152 c -0.419649,-0.29396 -0.452935,-0.74183 -0.124354,-1.67321 0.129823,-0.36799 0.17314,-0.66907 0.09626,-0.66907 -0.07688,0 -0.103904,-0.13721 -0.06005,-0.30492 0.06999,-0.26767 0.147367,-0.28415 0.633449,-0.13496 0.616569,0.18925 0.668418,0.302 0.305681,0.66477 -0.13642,0.13643 -0.353193,0.54613 -0.481718,0.91043 -0.213574,0.60538 -0.209672,0.67092 0.04534,0.76156 0.15346,0.0546 0.335278,0.12966 0.404037,0.16693 0.15622,0.0847 0.629852,-1.02246 0.593899,-1.38824 -0.07431,-0.75598 -0.019,-0.81653 0.578344,-0.63318 0.630373,0.19348 0.683589,0.30491 0.319515,0.66901 -0.13642,0.13643 -0.357481,0.55828 -0.491248,0.93744 -0.133765,0.37917 -0.332275,0.74599 -0.441131,0.81516 -0.325295,0.20669 -0.993427,0.14768 -1.378022,-0.12172 z m -5.592025,-0.36417 c -0.436441,-0.26484 -0.583076,-0.51858 -0.299688,-0.51858 0.21202,0 0.923953,0.60657 0.826699,0.70435 -0.04572,0.046 -0.282875,-0.0376 -0.527011,-0.18577 z m 23.613552,-0.27664 c -0.05401,-0.14076 -0.05583,-0.2983 -0.004,-0.3501 0.127877,-0.12788 -0.527766,-1.40035 -0.804906,-1.56214 -0.379025,-0.22128 -0.24652,-0.52838 0.350915,-0.8133 0.741851,-0.3538 1.256539,-0.34627 1.59094,0.0233 0.40849,0.45142 0.323865,0.93386 -0.241416,1.37629 -0.50339,0.39399 -0.505423,0.40133 -0.162157,0.58506 0.473346,0.25334 0.436914,0.44448 -0.14176,0.74375 -0.444392,0.22982 -0.498412,0.22956 -0.587582,-0.003 z m 0.691034,-1.93696 c 0.0497,-0.12952 0.04298,-0.31216 -0.01494,-0.40587 -0.161755,-0.26174 -0.742233,0.10748 -0.629769,0.40058 0.118372,0.3085 0.52707,0.31185 0.644701,0.005 z m -20.978196,1.61547 c -0.840893,-0.36552 -0.961681,-0.84885 -0.459708,-1.83953 0.487312,-0.96174 0.931554,-1.16258 1.696502,-0.76698 0.489958,0.25339 0.800277,0.882 0.597439,1.21023 -0.136271,0.22051 -0.577625,0.0382 -0.577625,-0.2386 0,-0.21409 -0.476861,-0.55595 -0.775498,-0.55595 -0.0815,0 -0.283583,0.30027 -0.449061,0.66726 -0.29398,0.65198 -0.293834,0.67241 0.0064,0.89194 0.359107,0.26261 0.731714,0.29444 0.731714,0.0625 0,-0.0892 -0.07297,-0.16217 -0.162157,-0.16217 -0.204024,0 -0.213474,-0.43565 -0.01215,-0.56008 0.225785,-0.13956 0.985097,0.2554 0.985097,0.5124 0,0.2425 -0.713386,1.02477 -0.925035,1.01436 -0.07094,-0.003 -0.366093,-0.10942 -0.655888,-0.23538 z m 24.931595,0.11452 c 0,-0.18307 0.908595,-0.69395 1.02577,-0.57676 0.116283,0.11629 -0.592173,0.70396 -0.848651,0.70396 -0.09742,0 -0.177119,-0.0572 -0.177119,-0.1272 z m -30.183859,-0.84042 c -0.265977,-0.2216 -0.308579,-0.31902 -0.139582,-0.31919 0.260345,-3.2e-4 0.810787,0.36254 0.810787,0.53438 0,0.19597 -0.288859,0.10336 -0.671205,-0.21519 z m 32.351154,-0.74861 c 0.255554,-0.22474 0.504425,-0.36883 0.553045,-0.32021 0.142126,0.14214 -0.475728,0.73957 -0.759045,0.73396 -0.184504,-0.004 -0.125456,-0.12226 0.206,-0.41375 z m -34.032133,-0.55515 c -0.456172,-0.5041 -0.125882,-0.60493 0.366983,-0.11203 0.320347,0.32037 0.369132,0.43737 0.182375,0.43737 -0.140227,0 -0.387438,-0.1464 -0.549358,-0.32534 z m 35.375308,-0.4344 c -0.05179,-0.0518 0.07905,-0.23044 0.290766,-0.39698 0.424656,-0.33406 0.577014,-0.37612 0.577014,-0.1593 0,0.19412 -0.749499,0.67457 -0.86778,0.55628 z m -36.918999,-0.94741 c -0.507922,-0.5407 -0.257212,-0.73611 0.269107,-0.20975 0.229539,0.22956 0.34739,0.46061 0.261894,0.51346 -0.0855,0.0528 -0.324448,-0.0838 -0.531001,-0.30371 z m 38.435409,-0.53497 c 0,-0.0736 0.182427,-0.3053 0.405394,-0.51478 0.453291,-0.42588 0.539431,-0.26355 0.152963,0.28826 -0.250773,0.35805 -0.558357,0.48284 -0.558357,0.22652 z M 9.40191,47.593421 c -0.507922,-0.5407 -0.257212,-0.7361 0.2691075,-0.20974 0.229539,0.22955 0.3473895,0.46061 0.261894,0.51345 -0.0855,0.0529 -0.3244485,-0.0838 -0.5310015,-0.30371 z m 41.354243,-0.58233 c 0,-0.3084 0.605266,-0.88918 0.762643,-0.73179 0.06161,0.0616 -0.08478,0.30885 -0.325309,0.5494 -0.320349,0.32038 -0.437334,0.36916 -0.437334,0.18239 z M 8.054757,45.832501 c -0.340203,-0.51926 -0.14439,-0.67598 0.237672,-0.19023 0.334035,0.42469 0.376092,0.57706 0.159281,0.57706 -0.07893,0 -0.257558,-0.17407 -0.396953,-0.38683 z m 43.998656,-0.5501 c 0,-0.21633 0.496628,-0.84694 0.666992,-0.84694 0.08917,0 0.03282,0.21893 -0.125236,0.48651 -0.271179,0.45911 -0.541756,0.63912 -0.541756,0.36043 z m -31.336925,-0.63847 c -0.156077,-0.0385 -0.283776,-0.12499 -0.283776,-0.19209 0,-0.17528 0.620786,-0.71493 1.418878,-1.23344 0.379043,-0.24626 0.689169,-0.55114 0.689169,-0.67751 0,-0.75209 -1.188303,-1.94326 -1.758142,-1.76239 -0.16442,0.0522 -0.689255,0.38612 -1.166301,0.74207 -1.024245,0.76426 -1.296809,0.66987 -0.965429,-0.3343 0.323409,-0.98001 1.318009,-2.02674 2.230734,-2.34765 2.240738,-0.78783 2.639519,-1.15779 6.338971,-5.88095 0.48012,-0.61298 0.51766,-0.72885 0.323481,-0.99854 -1.015628,-1.41055 -3.234824,-4.26478 -3.75322,-4.82722 -0.91849,-0.99652 -1.557793,-1.33772 -3.328315,-1.77632 -1.973774,-0.48895 -2.068365,-0.57519 -1.70534,-1.55476 l 0.277835,-0.7497 -0.683985,-0.7421 c -0.376192,-0.40815 -0.754938,-0.92873 -0.841657,-1.15684 -0.172644,-0.45412 -0.214309,-1.36664 -0.0624,-1.36664 0.0524,0 0.551963,0.25541 1.110146,0.56759 0.558182,0.31218 1.140139,0.5676 1.293238,0.5676 0.395021,0 1.320745,-2.04789 1.065021,-2.35604 -0.100133,-0.12066 -0.705195,-0.4193 -1.34458,-0.66365 l -1.162516,-0.44426 0.562642,-0.2296 c 0.821433,-0.3352 2.135996,-0.43094 2.819522,-0.20534 0.819735,0.27056 1.622405,1.08354 1.928088,1.95284 0.141137,0.40138 0.417862,1.60549 0.614943,2.67582 0.197081,1.07032 0.522632,2.31915 0.723443,2.77517 0.220422,0.50055 1.063365,1.61886 2.127077,2.82192 0.969079,1.09604 1.913875,2.17575 2.099544,2.39936 l 0.337582,0.40656 1.469625,-1.68787 c 3.886528,-4.46367 4.641846,-5.74417 4.903972,-8.31377 0.157899,-1.54785 0.4239,-1.95517 1.708357,-2.61594 0.739557,-0.38045 1.205111,-0.49793 2.165495,-0.54643 l 1.2234,-0.0618 -0.249136,0.38426 c -0.137023,0.21134 -0.73486,0.71265 -1.328523,1.11402 -0.754444,0.51008 -1.079803,0.83229 -1.080767,1.07032 -0.0019,0.48081 0.869108,1.62526 1.475807,1.93902 l 0.51063,0.26408 1.33506,-0.90694 c 0.734283,-0.49882 1.381588,-0.90694 1.438455,-0.90694 0.238504,0 0.07616,1.09727 -0.23993,1.6217 -0.950659,1.57724 -2.171152,2.59473 -3.112403,2.59473 -1.178769,0 -2.449654,0.84346 -3.955198,2.62498 -1.460748,1.7285 -4.26441,5.33249 -4.26441,5.48171 0,0.063 0.815853,1.01958 1.813006,2.12582 5.943651,6.59392 6.943496,7.86989 6.943496,8.86106 0,1.41894 -2.071709,2.20974 -3.191575,1.21828 -0.659898,-0.58423 -2.036026,-2.30432 -5.066471,-6.3328 -1.362075,-1.81066 -2.53862,-3.2702 -2.614544,-3.24341 -0.188333,0.0664 -3.128062,3.56458 -3.726177,4.43398 -0.274132,0.39847 -0.649432,1.32584 -0.869746,2.14914 -0.580191,2.16816 -0.78953,2.44454 -2.223955,2.93616 -1.096591,0.37583 -1.607685,0.47629 -1.969121,0.38703 z m 18.392101,-1.12554 c 0.662325,-0.59945 0.172109,-1.67766 -0.762757,-1.67766 -0.875507,0 -1.262559,0.81961 -0.715503,1.51514 0.391827,0.49817 1.029893,0.56832 1.47826,0.16252 z m -32.2068303,0.55664 c -0.277114,-0.39566 -0.321463,-0.61259 -0.125236,-0.61259 0.06996,0 0.25651,0.21893 0.414562,0.48651 0.331046,0.56046 0.08883,0.66602 -0.289326,0.12608 z m 46.3849733,-0.58486 c -0.06143,-0.0994 0.01571,-0.37521 0.171438,-0.61289 0.349099,-0.53284 0.485616,-0.2473 0.169889,0.35533 -0.14182,0.2707 -0.272344,0.36919 -0.341327,0.25756 z m -47.4503443,-1.3303 c -0.273117,-0.65941 -0.08819,-0.80209 0.233432,-0.18009 0.293087,0.56681 0.310702,0.6718 0.112709,0.6718 -0.07837,0 -0.234129,-0.22127 -0.346141,-0.49171 z m 48.4337673,-0.59879 c -0.112242,-0.18163 0.230521,-1.01449 0.418316,-1.01645 0.183452,-0.002 0.136107,0.35729 -0.104254,0.79096 -0.11791,0.21273 -0.259238,0.3142 -0.314062,0.22549 z M 5.0446697,40.412811 c -0.109769,-0.20512 -0.169965,-0.49684 -0.13377,-0.64825 0.04933,-0.20638 0.114128,-0.1575 0.258815,0.19523 0.242942,0.59228 0.143084,0.95406 -0.125045,0.45302 z m 50.1140323,-1.32898 c 0.09327,-0.26758 0.235418,-0.48651 0.315881,-0.48651 0.183599,0 0.182633,0.0455 -0.01185,0.55704 -0.228386,0.60075 -0.514856,0.5343 -0.304031,-0.0705 z M 4.2129527,38.181391 c -0.194483,-0.51157 -0.19545,-0.55704 -0.01185,-0.55704 0.08046,0 0.222608,0.21893 0.315879,0.48651 0.210826,0.60483 -0.07564,0.67128 -0.304029,0.0705 z m 51.5991023,-1.05492 c 0.02863,-0.29219 0.130921,-0.55708 0.227311,-0.58865 0.109615,-0.0359 0.148163,0.12719 0.102921,0.43547 -0.100075,0.68192 -0.395471,0.81894 -0.330232,0.15318 z M 3.6733447,36.297161 c -0.141132,-0.52704 -0.128694,-0.78103 0.03824,-0.78103 0.192481,0 0.35176,0.85731 0.190303,1.02429 -0.07038,0.0728 -0.173229,-0.0367 -0.228548,-0.24326 z m 52.5677613,-0.86349 c -0.123049,-0.12305 0.03792,-0.8773 0.209919,-0.98361 0.178175,-0.11013 0.184313,0.58741 0.0076,0.8658 -0.07162,0.11283 -0.169508,0.16585 -0.217537,0.11781 z M 3.2440217,33.894431 c 0,-0.26758 0.07297,-0.48651 0.162158,-0.48651 0.08919,0 0.162157,0.21893 0.162157,0.48651 0,0.26758 -0.07297,0.48651 -0.162157,0.48651 -0.08919,0 -0.162158,-0.21893 -0.162158,-0.48651 z m 53.3522823,-1.01357 c -0.0013,-0.33447 0.07049,-0.60814 0.159674,-0.60814 0.206539,0 0.206539,0.65341 0,0.97303 -0.116923,0.18094 -0.157827,0.0875 -0.159674,-0.36489 z M 3.0462267,31.779071 c -0.07844,-0.53447 0.102409,-0.7997 0.261881,-0.38409 0.145016,0.37794 0.119005,0.87774 -0.04568,0.87774 -0.07906,0 -0.176354,-0.22214 -0.2162,-0.49365 z m 3.083372,-0.65062 c 0.05241,-0.35715 -0.02712,-0.60189 -0.284719,-0.87611 l -0.357449,-0.38052 0.510256,-0.11208 c 0.313908,-0.069 0.578675,-0.26225 0.688057,-0.50234 0.09779,-0.21464 0.227345,-0.39026 0.287899,-0.39026 0.06056,0 0.19011,0.17562 0.2879,0.39026 0.109381,0.24009 0.374149,0.43339 0.6880563,0.50234 l 0.510256,0.11208 -0.353511,0.37633 c -0.274975,0.29272 -0.329134,0.48732 -0.243784,0.87595 0.09588,0.43659 0.0723,0.48624 -0.186898,0.39352 -0.1631443,-0.0584 -0.3847043,-0.17408 -0.4923563,-0.25717 -0.127181,-0.0982 -0.324391,-0.0609 -0.563093,0.10626 -0.511268,0.35813 -0.57369,0.32782 -0.490614,-0.23826 z m 46.3294393,0.008 c 0.08845,-0.40274 0.037,-0.59231 -0.241066,-0.88833 l -0.353512,-0.37632 0.514463,-0.11301 c 0.365746,-0.0803 0.574609,-0.25606 0.722531,-0.60789 l 0.208069,-0.49489 0.225173,0.47044 c 0.138849,0.29008 0.428738,0.53647 0.756162,0.64269 l 0.530987,0.17226 -0.343585,0.31097 c -0.251073,0.22723 -0.326916,0.45376 -0.281676,0.8413 0.06943,0.59478 0.04559,0.60842 -0.518117,0.29635 -0.343746,-0.19031 -0.469211,-0.18771 -0.866894,0.018 l -0.46498,0.24047 0.112445,-0.512 z m 4.29694,-0.56655 c 0,-0.31218 0.07297,-0.56759 0.162158,-0.56759 0.08919,0 0.162157,0.25541 0.162157,0.56759 0,0.31218 -0.07297,0.5676 -0.162157,0.5676 -0.08919,0 -0.162158,-0.25542 -0.162158,-0.5676 z M 2.9197067,29.596881 c 0,-0.31218 0.07297,-0.5676 0.162158,-0.5676 0.08919,0 0.162157,0.25542 0.162157,0.5676 0,0.31218 -0.07297,0.5676 -0.162157,0.5676 -0.08919,0 -0.162158,-0.25542 -0.162158,-0.5676 z m 53.7822193,-0.83788 c -0.160188,-0.1602 -0.131143,-0.86491 0.03565,-0.86491 0.07907,0 0.175883,0.21893 0.215153,0.48651 0.06869,0.46808 -0.02292,0.6063 -0.2508,0.3784 z M 3.0818647,27.498231 c 0,-0.21772 0.07297,-0.44095 0.162157,-0.49608 0.09461,-0.0585 0.162158,0.10643 0.162158,0.39586 0,0.27284 -0.07297,0.49608 -0.162158,0.49608 -0.08919,0 -0.162157,-0.17813 -0.162157,-0.39586 z m 53.3497983,-1.3165 c 0,-0.34348 0.06565,-0.53659 0.162158,-0.47694 0.08919,0.0551 0.162157,0.31485 0.162157,0.57717 0,0.26231 -0.07297,0.47694 -0.162157,0.47694 -0.08919,0 -0.162158,-0.25973 -0.162158,-0.57717 z M 3.4086617,25.430561 c 0.0013,-0.20595 0.07322,-0.48392 0.159675,-0.61771 0.119609,-0.1851 0.157784,-0.11953 0.159675,0.27423 0.0013,0.28461 -0.07049,0.56258 -0.159675,0.61771 -0.09042,0.0559 -0.16106,-0.0654 -0.159675,-0.27423 z m 52.6514263,-1.22492 c -0.04679,-0.24478 -0.04271,-0.5136 0.0091,-0.59738 0.105461,-0.17065 0.333586,0.32225 0.35111,0.75862 0.01826,0.45464 -0.266851,0.327 -0.360177,-0.16124 z M 3.8574217,23.195511 c 0.03962,-0.26998 0.141574,-0.49088 0.226563,-0.49088 0.210156,0 0.09641,0.85235 -0.12335,0.92434 -0.109508,0.0359 -0.148228,-0.12673 -0.103213,-0.43346 z m 51.6772873,-0.8963 c -0.04179,-0.13379 -0.109289,-0.35039 -0.149987,-0.48132 -0.151091,-0.48609 0.211232,-0.3911 0.382516,0.10028 0.21746,0.62386 0.217468,0.62429 0.0107,0.62429 -0.09199,0 -0.201443,-0.10946 -0.243236,-0.24325 z m -51.1555853,-0.8003 c 0,-0.0388 0.07117,-0.25772 0.158144,-0.48651 0.228386,-0.60075 0.514855,-0.5343 0.304029,0.0705 -0.09327,0.26758 -0.235417,0.48651 -0.315879,0.48651 -0.08046,0 -0.146294,-0.0317 -0.146294,-0.0705 z m 50.4511623,-1.29194 c -0.106153,-0.25879 -0.166349,-0.55051 -0.133772,-0.64825 0.09156,-0.27471 0.467043,0.53202 0.392586,0.84348 -0.04933,0.20638 -0.114128,0.15751 -0.258814,-0.19523 z M 5.1899117,19.468851 c 0,-0.29755 0.372911,-0.96975 0.495833,-0.89378 0.148778,0.092 -0.188062,1.04833 -0.369227,1.04833 -0.06963,0 -0.126606,-0.0695 -0.126606,-0.15455 z m 48.6732623,-1.3937 c -0.224351,-0.49244 -0.23063,-0.55997 -0.05206,-0.55997 0.117877,0 0.512502,0.69266 0.512502,0.89957 0,0.23341 -0.300287,0.0119 -0.460443,-0.3396 z M 6.1664627,17.545091 c -0.0052,-0.30713 0.304903,-0.84074 0.48857,-0.84074 0.235487,0 0.184059,0.19875 -0.167862,0.64869 -0.174407,0.22298 -0.318725,0.3094 -0.320708,0.19205 z M 52.8103,16.220191 c -0.15156,-0.2566 -0.214824,-0.50408 -0.140585,-0.54996 0.07424,-0.0459 0.258983,0.12651 0.410542,0.3831 0.15156,0.25659 0.214824,0.50407 0.140585,0.54996 -0.07424,0.0459 -0.258983,-0.12651 -0.410542,-0.3831 z M 7.4048307,15.244821 c 0.2711793,-0.4591 0.5417573,-0.63912 0.5417573,-0.36042 0,0.21632 -0.4966283,0.84693 -0.6669923,0.84693 -0.08917,0 -0.03282,-0.21893 0.125235,-0.48651 z m 44.2837273,-0.73644 c -0.317264,-0.42337 -0.351662,-0.56092 -0.140267,-0.56092 0.201488,0 0.689715,0.77811 0.543858,0.86677 -0.0659,0.0401 -0.247514,-0.0976 -0.403591,-0.30585 z M 8.43306,13.810421 c 0,-0.18342 0.630108,-0.7464 0.726973,-0.64952 0.107332,0.10734 -0.388344,0.78656 -0.57401,0.78656 -0.08413,0 -0.152963,-0.0617 -0.152963,-0.13704 z m 41.847996,-1.06713 c -0.198044,-0.21083 -0.292229,-0.42526 -0.2093,-0.47652 0.08293,-0.0512 0.312818,0.0793 0.510864,0.29013 0.198045,0.21082 0.292229,0.42526 0.2093,0.47651 -0.08293,0.0513 -0.312818,-0.0793 -0.510864,-0.29012 z m -40.3678955,-0.7007 c 0.4191335,-0.53328 0.5894215,-0.67433 0.6912045,-0.57254 0.119412,0.11942 -0.53453,0.8557 -0.7600095,0.8557 -0.08456,0 -0.0536,-0.12742 0.06881,-0.28316 z m 38.9084785,-0.92101 c -0.198044,-0.21082 -0.292229,-0.42525 -0.2093,-0.47651 0.08293,-0.0513 0.312818,0.0793 0.510864,0.29012 0.198045,0.21083 0.292229,0.42526 0.2093,0.47652 -0.08293,0.0513 -0.312818,-0.0793 -0.510864,-0.29013 z m -37.46465,-0.42981 c 0.0054,-0.24524 0.805692,-0.9129703 0.805692,-0.67224 0,0.0778 -0.182427,0.31286 -0.405393,0.52235 -0.277555,0.26077 -0.403787,0.30804 -0.400299,0.14989 z m 35.8317,-1.0418303 c -0.285249,-0.30366 -0.319005,-0.40543 -0.134477,-0.40543 0.240895,0 0.783107,0.48605 0.783107,0.702 0,0.2239003 -0.279945,0.0959 -0.64863,-0.29657 z m -34.21522,-0.37459 c 0,-0.20758 0.557601,-0.67952 0.802872,-0.67952 0.171363,0 0.171468,0.0462 6.48e-4,0.25211 -0.272351,0.32819 -0.803439,0.61072 -0.803439,0.42741 z m 32.536168,-0.91765 c -0.165393,-0.12531 -0.274849,-0.30461 -0.243236,-0.39845 0.03161,-0.0938 0.27639,0.008 0.54395,0.22715 0.517607,0.42322 0.240316,0.58118 -0.300714,0.1713 z m -30.809242,-0.37128 c -0.04824,-0.0781 0.136516,-0.2744 0.410571,-0.4363 0.336204,-0.19861 0.475497,-0.226 0.428229,-0.0842 -0.09905,0.29717 -0.733513,0.69086 -0.8388,0.52048 z m 29.037008,-0.79184 c -0.247562,-0.12972 -0.407036,-0.30556 -0.354383,-0.39076 0.09187,-0.14866 0.287018,-0.0793 0.863608,0.30678 0.38618,0.2586 -0.0414,0.32912 -0.509225,0.084 z m -27.196469,-0.35981 c 0,-0.14 0.701408,-0.6715 0.886161,-0.6715 0.26611,0 0.01884,0.35115 -0.399689,0.5676 -0.26756,0.13837 -0.486472,0.18513 -0.486472,0.1039 z m 25.256021,-0.68449 c -0.383699,-0.2235 -0.360232,-0.46315 0.03523,-0.35972 0.412218,0.1078 0.793843,0.5371 0.471099,0.52995 -0.122402,-0.003 -0.35025,-0.0793 -0.506326,-0.17023 z m -23.310132,-0.35271 c 0,-0.11653 0.218912,-0.29451 0.486472,-0.39551 0.26756,-0.101 0.486472,-0.11887 0.486472,-0.0397 0,0.0792 -0.218912,0.25714 -0.486472,0.39551 -0.380121,0.19658 -0.486472,0.20526 -0.486472,0.0397 z m 21.323703,-0.55947 c -0.26756,-0.14493 -0.406311,-0.29036 -0.308339,-0.32318 0.25905,-0.0868 1.038047,0.23854 1.038047,0.43349 0,0.22455 -0.154662,0.20117 -0.729708,-0.11031 z m -19.377814,-0.33703 c 0,-0.18139 0.799062,-0.42528 0.938027,-0.28631 0.129144,0.12916 0.01018,0.21048 -0.492426,0.33663 -0.263521,0.0661 -0.445601,0.0456 -0.445601,-0.0503 z m 17.391385,-0.31178 c -0.398633,-0.0768 -0.505676,-0.37206 -0.134881,-0.37206 0.351634,0 0.742972,0.17997 0.742972,0.34169 0,0.0797 -0.05473,0.13488 -0.121618,0.12274 -0.06689,-0.0122 -0.285803,-0.0537 -0.486473,-0.0924 z m -15.283338,-0.3369 c 0,-0.18139 0.799061,-0.42529 0.938027,-0.28631 0.129144,0.12915 0.01018,0.21047 -0.492427,0.33663 -0.26352,0.0661 -0.4456,0.0456 -0.4456,-0.0503 z m 12.977291,-0.35317 c -0.131197,-0.083 -0.204168,-0.18488 -0.162158,-0.22645 0.125434,-0.12412 0.968249,0.0839 0.968249,0.23902 0,0.18744 -0.502234,0.17961 -0.806091,-0.0126 z m -10.869245,-0.1496 c 0,-0.15508 0.842815,-0.36314 0.968249,-0.23902 0.114618,0.11342 -0.360348,0.37697 -0.684473,0.3798 -0.156077,0.001 -0.283776,-0.062 -0.283776,-0.14078 z m 8.959199,-0.13335 c -0.398633,-0.0768 -0.505677,-0.37206 -0.134881,-0.37206 0.351634,0 0.742971,0.17997 0.742971,0.34169 0,0.0797 -0.05473,0.13488 -0.121618,0.12273 -0.06689,-0.0121 -0.285802,-0.0537 -0.486472,-0.0924 z m -6.851152,-0.20989 c 0,-0.0892 0.259705,-0.16217 0.577122,-0.16217 0.343454,0 0.536543,0.0657 0.476902,0.16217 -0.05512,0.0892 -0.314826,0.16217 -0.577122,0.16217 -0.262296,0 -0.476902,-0.073 -0.476902,-0.16217 z m 2.108047,-0.16217 c 0,-0.0892 0.255398,-0.1621799 0.567551,-0.1621799 0.312153,0 0.567551,0.073 0.567551,0.1621799 0,0.0892 -0.255398,0.16217 -0.567551,0.16217 -0.312153,0 -0.567551,-0.073 -0.567551,-0.16217 z m 2.108047,0 c 0,-0.0892 0.255398,-0.1621799 0.567551,-0.1621799 0.312153,0 0.567551,0.073 0.567551,0.1621799 0,0.0892 -0.255398,0.16217 -0.567551,0.16217 -0.312153,0 -0.567551,-0.073 -0.567551,-0.16217 z"
     id="path3161"
     style="fill:#777777;fill-opacity:1" />
</svg>
